<?xml version="1.0" encoding="utf-8"?>
<!-- Generator: Adobe Illustrator 27.9.0, SVG Export Plug-In . SVG Version: 6.00 Build 0)  -->
<svg version="1.1" id="Layer_1" xmlns="http://www.w3.org/2000/svg" xmlns:xlink="http://www.w3.org/1999/xlink" x="0px" y="0px"
	 viewBox="0 0 1366 768" style="enable-background:new 0 0 1366 768;" xml:space="preserve">
<style type="text/css">
	.st0{fill:#F29325;}
</style>
<g>
	<g>
		<path class="st0" d="M1315,236H815c-27.6,0-50-22.4-50-50v0c0-27.6,22.4-50,50-50h500c27.6,0,50,22.4,50,50v0
			C1365,213.6,1342.6,236,1315,236z"/>
	</g>
	<rect x="1206" y="136" class="st0" width="161" height="100"/>
</g>
<g>
	<g>
		<path class="st0" d="M1614,410h-500c-27.6,0-50-22.4-50-50v0c0-27.6,22.4-50,50-50h500c27.6,0,50,22.4,50,50v0
			C1664,387.6,1641.6,410,1614,410z"/>
	</g>
	<rect x="1505" y="310" class="st0" width="161" height="100"/>
</g>
<g>
	<g>
		<path class="st0" d="M1400,699H900c-27.6,0-50-22.4-50-50v0c0-27.6,22.4-50,50-50h500c27.6,0,50,22.4,50,50v0
			C1450,676.6,1427.6,699,1400,699z"/>
	</g>
	<rect x="1291" y="599" class="st0" width="161" height="100"/>
</g>
</svg>
